HIERARCHY
ROOT Hips
{
    OFFSET   0.000000   0.000000   0.000000
    CHANNELS 6 Xposition Yposition Zposition Zrotation Xrotation Yrotation
    JOINT Chest
    {
        OFFSET   0.000000   8.007230   0.000000
        CHANNELS 3 Zrotation Xrotation Yrotation
        JOINT Chest2
        {
            OFFSET   0.000000  22.077100   0.000000
            CHANNELS 3 Zrotation Xrotation Yrotation
            JOINT Neck
            {
                OFFSET   0.000000  23.254800  -0.000021
                CHANNELS 3 Zrotation Xrotation Yrotation
                JOINT Head
                {
                    OFFSET   0.000000  14.370000   1.956610
                    CHANNELS 3 Zrotation Xrotation Yrotation
                    End Site
                    {
                        OFFSET   0.000000  19.566000   0.000000
                    }
                }
            }
            JOINT LeftCollar
            {
                OFFSET   3.911900  19.017000  -0.467063
                CHANNELS 3 Zrotation Xrotation Yrotation
                JOINT LeftShoulder
                {
                    OFFSET  10.383700   0.000000   0.000000
                    CHANNELS 3 Zrotation Xrotation Yrotation
                    JOINT LeftElbow
                    {
                        OFFSET  26.662100   0.001529   0.000325
                        CHANNELS 3 Zrotation Xrotation Yrotation
                        JOINT LeftWrist
                        {
                            OFFSET  28.869000  -0.000011  -0.000096
                            CHANNELS 3 Zrotation Xrotation Yrotation
                            JOINT LeftFinger0
                            {
                                OFFSET   2.044650  -2.323460   3.252850
                                CHANNELS 3 Zrotation Xrotation Yrotation
                                JOINT LeftFinger01
                                {
                                    OFFSET   3.088130   0.000000   0.000000
                                    CHANNELS 3 Zrotation Xrotation Yrotation
                                    JOINT LeftFinger02
                                    {
                                        OFFSET   2.639460   0.000000   0.000000
                                        CHANNELS 3 Zrotation Xrotation Yrotation
                                        End Site
                                        {
                                            OFFSET   2.582190   0.000000   0.000000
                                        }
                                    }
                                }
                            }
                            JOINT LeftFinger1
                            {
                                OFFSET   8.364480   0.000000   3.252850
                                CHANNELS 3 Zrotation Xrotation Yrotation
                                JOINT LeftFinger11
                                {
                                    OFFSET   4.646930   0.000000   0.000000
                                    CHANNELS 3 Zrotation Xrotation Yrotation
                                    JOINT LeftFinger12
                                    {
                                        OFFSET   2.323460   0.000000   0.000000
                                        CHANNELS 3 Zrotation Xrotation Yrotation
                                        End Site
                                        {
                                            OFFSET   2.273050   0.000000   0.000000
                                        }
                                    }
                                }
                            }
                            JOINT LeftFinger2
                            {
                                OFFSET   8.364480   0.000016   1.078090
                                CHANNELS 3 Zrotation Xrotation Yrotation
                                JOINT LeftFinger21
                                {
                                    OFFSET   5.111620   0.000000   0.000000
                                    CHANNELS 3 Zrotation Xrotation Yrotation
                                    JOINT LeftFinger22
                                    {
                                        OFFSET   2.788160   0.000017   0.000000
                                        CHANNELS 3 Zrotation Xrotation Yrotation
                                        End Site
                                        {
                                            OFFSET   2.727660   0.000000   0.000000
                                        }
                                    }
                                }
                            }
                            JOINT LeftFinger3
                            {
                                OFFSET   7.899780   0.000015  -1.078090
                                CHANNELS 3 Zrotation Xrotation Yrotation
                                JOINT LeftFinger31
                                {
                                    OFFSET   4.646920   0.000000   0.000000
                                    CHANNELS 3 Zrotation Xrotation Yrotation
                                    JOINT LeftFinger32
                                    {
                                        OFFSET   2.323470   0.000000   0.000000
                                        CHANNELS 3 Zrotation Xrotation Yrotation
                                        End Site
                                        {
                                            OFFSET   2.273050   0.000000   0.000000
                                        }
                                    }
                                }
                            }
                            JOINT LeftFinger4
                            {
                                OFFSET   7.435090   0.000000  -3.252850
                                CHANNELS 3 Zrotation Xrotation Yrotation
                                JOINT LeftFinger41
                                {
                                    OFFSET   3.717550   0.000000   0.000000
                                    CHANNELS 3 Zrotation Xrotation Yrotation
                                    JOINT LeftFinger42
                                    {
                                        OFFSET   1.858760   0.000000   0.000000
                                        CHANNELS 3 Zrotation Xrotation Yrotation
                                        End Site
                                        {
                                            OFFSET   1.818440   0.000000   0.000000
                                        }
                                    }
                                }
                            }
                        }
                    }
                }
            }
            JOINT RightCollar
            {
                OFFSET  -3.911900  19.017000  -0.467062
                CHANNELS 3 Zrotation Xrotation Yrotation
                JOINT RightShoulder
                {
                    OFFSET -10.383700   0.000015   0.000000
                    CHANNELS 3 Zrotation Xrotation Yrotation
                    JOINT RightElbow
                    {
                        OFFSET -26.662100   0.001341   0.000385
                        CHANNELS 3 Zrotation Xrotation Yrotation
                        JOINT RightWrist
                        {
                            OFFSET -28.869000   0.000025  -0.000080
                            CHANNELS 3 Zrotation Xrotation Yrotation
                            JOINT RightFinger0
                            {
                                OFFSET  -2.044650  -2.323490   3.252850
                                CHANNELS 3 Zrotation Xrotation Yrotation
                                JOINT RightFinger01
                                {
                                    OFFSET  -3.088130   0.000000   0.000000
                                    CHANNELS 3 Zrotation Xrotation Yrotation
                                    JOINT RightFinger02
                                    {
                                        OFFSET  -2.639460   0.000000   0.000000
                                        CHANNELS 3 Zrotation Xrotation Yrotation
                                        End Site
                                        {
                                            OFFSET  -2.582190   0.000000   0.000000
                                        }
                                    }
                                }
                            }
                            JOINT RightFinger1
                            {
                                OFFSET  -8.364480   0.000000   3.252850
                                CHANNELS 3 Zrotation Xrotation Yrotation
                                JOINT RightFinger11
                                {
                                    OFFSET  -4.646930   0.000000   0.000000
                                    CHANNELS 3 Zrotation Xrotation Yrotation
                                    JOINT RightFinger12
                                    {
                                        OFFSET  -2.323470   0.000000   0.000000
                                        CHANNELS 3 Zrotation Xrotation Yrotation
                                        End Site
                                        {
                                            OFFSET  -2.273050   0.000000   0.000000
                                        }
                                    }
                                }
                            }
                            JOINT RightFinger2
                            {
                                OFFSET  -8.364480   0.000000   1.078090
                                CHANNELS 3 Zrotation Xrotation Yrotation
                                JOINT RightFinger21
                                {
                                    OFFSET  -5.111610   0.000000   0.000000
                                    CHANNELS 3 Zrotation Xrotation Yrotation
                                    JOINT RightFinger22
                                    {
                                        OFFSET  -2.788160   0.000000   0.000000
                                        CHANNELS 3 Zrotation Xrotation Yrotation
                                        End Site
                                        {
                                            OFFSET  -2.727660   0.000000   0.000000
                                        }
                                    }
                                }
                            }
                            JOINT RightFinger3
                            {
                                OFFSET  -7.899780   0.000000  -1.078090
                                CHANNELS 3 Zrotation Xrotation Yrotation
                                JOINT RightFinger31
                                {
                                    OFFSET  -4.646920   0.000000   0.000000
                                    CHANNELS 3 Zrotation Xrotation Yrotation
                                    JOINT RightFinger32
                                    {
                                        OFFSET  -2.323470   0.000000   0.000000
                                        CHANNELS 3 Zrotation Xrotation Yrotation
                                        End Site
                                        {
                                            OFFSET  -2.273050   0.000000   0.000000
                                        }
                                    }
                                }
                            }
                            JOINT RightFinger4
                            {
                                OFFSET  -7.435090   0.000000  -3.252850
                                CHANNELS 3 Zrotation Xrotation Yrotation
                                JOINT RightFinger41
                                {
                                    OFFSET  -3.717550   0.000000   0.000000
                                    CHANNELS 3 Zrotation Xrotation Yrotation
                                    JOINT RightFinger42
                                    {
                                        OFFSET  -1.858770   0.000000   0.000000
                                        CHANNELS 3 Zrotation Xrotation Yrotation
                                        End Site
                                        {
                                            OFFSET  -1.818440   0.000000   0.000000
                                        }
                                    }
                                }
                            }
                        }
                    }
                }
            }
        }
    }
    JOINT LeftHip
    {
        OFFSET   9.783010   0.000000   0.000000
        CHANNELS 3 Zrotation Xrotation Yrotation
        JOINT LeftKnee
        {
            OFFSET   0.000070 -41.789100   0.000028
            CHANNELS 3 Zrotation Xrotation Yrotation
            JOINT LeftAnkle
            {
                OFFSET   0.000087 -41.133200  -0.000100
                CHANNELS 3 Zrotation Xrotation Yrotation
                JOINT LeftToe
                {
                    OFFSET   0.000000  -6.358960  14.674500
                    CHANNELS 3 Zrotation Xrotation Yrotation
                    End Site
                    {
                        OFFSET   0.000000   0.000000   3.913200
                    }
                }
            }
        }
    }
    JOINT RightHip
    {
        OFFSET  -9.783020   0.000000   0.000000
        CHANNELS 3 Zrotation Xrotation Yrotation
        JOINT RightKnee
        {
            OFFSET   0.000044 -41.789100  -0.000870
            CHANNELS 3 Zrotation Xrotation Yrotation
            JOINT RightAnkle
            {
                OFFSET  -0.000090 -41.133200  -0.000245
                CHANNELS 3 Zrotation Xrotation Yrotation
                JOINT RightToe
                {
                    OFFSET   0.000000  -6.358960  14.674500
                    CHANNELS 3 Zrotation Xrotation Yrotation
                    End Site
                    {
                        OFFSET   0.000000   0.000000   3.913200
                    }
                }
            }
        }
    }
}
MOTION
Frames: 6
Frame Time:   0.016667
  0.299275  89.546100   1.164770  -1.102060   1.482690   2.977330   0.817138   0.770066  -1.301370   1.651780   1.521270  -2.613930  -0.309716  -0.285043  -0.000567  -0.511493  -0.578257   2.652940  -2.656320   0.593151   8.404110 -80.386400   3.196120   3.936750   0.280619   4.837290 -15.377500   5.424680  -6.466350  -1.294580  42.702000  35.481300 -53.000300 -30.035300  -0.002305   0.006297 -10.010000   0.013956   0.002840 -26.216300  -0.216020   0.465918 -21.452400  -0.007880   0.000644 -15.021000  -0.005630   0.001574 -28.307400  -4.027040   7.431480 -36.926000   0.001890   0.005418 -24.592700  -0.001381  -0.010784 -25.407500  -3.649050   7.620990 -25.650500   0.002813   0.001717 -17.083200   0.002002   0.000155 -25.478100  -3.655380   7.615030 -38.581600   0.002691  -0.002355 -25.695400   0.001525   0.000948   6.717700   4.006880   4.829490  74.121200 -11.134200  -4.848190   4.021760  -4.673890  13.315300 -18.899700  -1.689240   1.647620 -40.075600  37.903700  76.929800  29.985800   0.013725  -0.007829   9.997050  -0.000194   0.000182  27.212000   0.808165   1.576170  22.273300   0.001350  -0.002092  15.591300  -0.005823   0.005767  28.428100   0.842385   1.558240  35.574800  -0.006301   0.010124  23.692800  -0.000409   0.009421  28.071200  -0.441123  -0.826787  32.553700  -0.000408   0.013490  21.680800   0.003273   0.010637  32.345300  -0.501399  -0.791684  48.523200  -0.000616   0.004110  32.316400   0.005867   0.006128   3.439000  -1.046780  -1.457570   0.405442   0.685042  11.731700  -3.299050  -1.727440  -1.379840  -0.000000   0.000000   0.000000  -0.196002  -1.657140  -1.257920  -0.069284   4.300140 -12.255600  -0.763769  -4.083510  -4.966900  -0.000000   0.000000   0.000000
  0.299411  89.546100   1.170890  -1.102260   1.482680   2.984850   0.818473   0.770061  -1.305060   1.654500   1.521220  -2.621330  -0.309715  -0.277416  -0.000394  -0.511784  -0.562426   2.659480  -2.656720   0.593033   8.410420 -80.386500   3.196110   3.938940   0.283319   4.838590 -15.362600   5.432290  -6.469050  -1.294580  42.695900  35.468500 -52.987900 -30.032100  -0.002307   0.006297 -10.010000   0.014096   0.002843 -26.220000  -0.215874   0.459663 -21.454500  -0.007888   0.000692 -15.021000  -0.005685   0.001575 -28.307400  -4.027040   7.431480 -36.936800   0.002028   0.005467 -24.599900  -0.001253  -0.010880 -25.412600  -3.649050   7.621100 -25.655700   0.003009   0.001605 -17.086700   0.002147   0.000193 -25.481700  -3.655380   7.615270 -38.587100   0.002903  -0.002356 -25.699000   0.001640   0.001030   6.722120   4.006340   4.838370  74.127700 -11.129800  -4.840570   4.024220  -4.683710  13.315500 -18.891800  -1.683970   1.641440 -40.094900  37.924600  76.950400  29.979300   0.013716  -0.007824   9.997410  -0.000204   0.000183  27.201500   0.807999   1.576170  22.264800   0.001350  -0.002093  15.585600  -0.005825   0.005764  28.428100   0.842224   1.558240  35.551400  -0.006295   0.010122  23.677200  -0.000410   0.009420  28.071300  -0.444832  -0.834163  32.529100  -0.000406   0.013483  21.664400   0.003270   0.010630  32.331700  -0.505492  -0.798830  48.502800  -0.000622   0.004098  32.302900   0.005865   0.006122   3.439140  -1.037640  -1.457440   0.405418   0.679854  11.731700  -3.302050  -1.726010  -1.379810  -0.000000   0.000000  -0.000000  -0.201208  -1.717140  -1.261680  -0.064855   4.367320 -12.255000  -0.763437  -4.083250  -4.966910  -0.000000   0.000000   0.000000
  0.299547  89.546100   1.181010  -1.102450   1.482670   2.992370   0.821108   0.770032  -1.308740   1.659810   1.521030  -2.628730  -0.309721  -0.263713  -0.000222  -0.512252  -0.534264   2.670130  -2.657160   0.592908   8.421590 -80.386700   3.196080   3.943100   0.288556   4.845350 -15.341000   5.443120  -6.476460  -1.294610  42.686200  35.447800 -52.968200 -30.026600  -0.002312   0.006296 -10.010000   0.014392   0.002847 -26.226400  -0.215728   0.449768 -21.458600  -0.007901   0.000792 -15.021000  -0.005796   0.001577 -28.307400  -4.027030   7.431480 -36.956600   0.002222   0.005571 -24.613100  -0.001041  -0.011083 -25.422100  -3.649050   7.621200 -25.665100   0.003283   0.001419 -17.093000   0.002349   0.000256 -25.488800  -3.655390   7.615510 -38.598000   0.003200  -0.002359 -25.706200   0.001801   0.001146   6.729500   4.005770   4.850640  74.139800 -11.121100  -4.830090   4.027520  -4.697070  13.315800 -18.884200  -1.674080   1.631000 -40.119700  37.952500  76.979300  29.972900   0.013703  -0.007819   9.997920  -0.000223   0.000184  27.187200   0.807832   1.576170  22.253200   0.001350  -0.002096  15.577200  -0.005826   0.005757  28.428100   0.842062   1.558240  35.519600  -0.006282   0.010116  23.656100  -0.000414   0.009416  28.071200  -0.450827  -0.845252  32.502700  -0.000402   0.013468  21.646800   0.003266   0.010612  32.316800  -0.512152  -0.809557  48.480600  -0.000636   0.004070  32.288100   0.005861   0.006104   3.439320  -1.023590  -1.457320   0.405393   0.674666  11.731800  -3.307350  -1.724570  -1.379620   0.000000   0.000000   0.000000  -0.209750  -1.777130  -1.267030  -0.060428   4.434490 -12.254400  -0.763105  -4.082980  -4.966920  -0.000000   0.000000   0.000000
  0.299504  89.546100   1.188900  -1.101950   1.481390   2.987660   0.824110   0.769837  -1.306500   1.665780   1.520560  -2.624290  -0.309885  -0.250350  -0.000338  -0.512613  -0.507451   2.676090  -2.656180   0.595393   8.431550 -80.392600   3.187240   3.948760   0.295120   4.862720 -15.328400   5.448080  -6.489520  -1.297780  42.678000  35.429300 -52.950800 -30.020800  -0.002326   0.006310 -10.010000   0.014797   0.002847 -26.232700  -0.216039   0.441465 -21.463600  -0.007916   0.000927 -15.023800  -0.005942   0.001581 -28.307600  -4.027030   7.429560 -36.977600   0.002305   0.005712 -24.627100  -0.000830  -0.011362 -25.431900  -3.649060   7.620640 -25.675000   0.003400   0.001233 -17.099600   0.002435   0.000320 -25.497600  -3.655410   7.615450 -38.611300   0.003327  -0.002362 -25.715100   0.001871   0.001192   6.736730   4.008410   4.855300  74.151000 -11.114600  -4.827540   4.027580  -4.699590  13.310100 -18.885100  -1.661510   1.621890 -40.123800  37.961200  76.990900  29.976900   0.013699  -0.007819   9.998130  -0.000242   0.000195  27.183400   0.807875   1.574730  22.250100   0.001353  -0.002102  15.572500  -0.005827   0.005748  28.428200   0.842103   1.556950  35.511300  -0.006264   0.010103  23.650500  -0.000417   0.009412  28.070800  -0.456257  -0.852132  32.501400  -0.000399   0.013447  21.645900   0.003261   0.010587  32.315700  -0.518329  -0.816148  48.479200  -0.000658   0.004029  32.287100   0.005852   0.006073   3.439340  -1.016000  -1.457340   0.406712   0.680697  11.731700  -3.312710  -1.729920  -1.375140  -0.000000   0.000000   0.000000  -0.214056  -1.546790  -1.269140  -0.048469   4.208760 -12.256600  -0.764576  -4.084070  -4.960970   0.000000   0.000000   0.000000
  0.299203  89.546100   1.196850  -1.101030   1.477510   2.981180   0.827556   0.769666  -1.303380   1.672630   1.520230  -2.618080  -0.310262  -0.236433  -0.000454  -0.512890  -0.479621   2.685830  -2.654050   0.601907   8.442970 -80.403700   3.170390   3.952420   0.300920   4.881080 -15.322900   5.449280  -6.503930  -1.304440  42.673400  35.418500 -52.941000 -30.017300  -0.002337   0.006323 -10.010000   0.015203   0.002847 -26.238400  -0.216878   0.436801 -21.468500  -0.007925   0.001062 -15.028000  -0.006075   0.001586 -28.307800  -4.027030   7.426540 -36.998800   0.002332   0.005854 -24.641200  -0.000703  -0.011640 -25.441300  -3.649080   7.619200 -25.684500   0.003439   0.001120 -17.105900   0.002463   0.000358 -25.506800  -3.655440   7.615030 -38.625200   0.003369  -0.002367 -25.724300   0.001894   0.001207   6.740750   4.014080   4.856590  74.166300 -11.099700  -4.825360   4.027460  -4.702430  13.304400 -18.885900  -1.652270   1.613570 -40.117800  37.963000  76.994300  29.980900   0.013695  -0.007819   9.998200  -0.000268   0.000218  27.181800   0.808169   1.573290  22.248700   0.001360  -0.002108  15.568900  -0.005827   0.005732  28.428300   0.842389   1.555670  35.507800  -0.006241   0.010087  23.648200  -0.000422   0.009406  28.070000  -0.459403  -0.856498  32.500200  -0.000394   0.013419  21.645100   0.003254   0.010554  32.315000  -0.521937  -0.820336  48.478300  -0.000688   0.003976  32.286500   0.005841   0.006033   3.439370  -1.007500  -1.457530   0.409023   0.686727  11.731600  -3.317420  -1.736110  -1.367730   0.000000   0.000000   0.000000  -0.215047  -1.316450  -1.270450  -0.036275   3.982970 -12.262700  -0.767902  -4.086420  -4.949480   0.000000   0.000000   0.000000
  0.295733  89.546000   1.205070  -1.100150   1.471490   2.978770   0.831389   0.769686  -1.302050   1.680290   1.520250  -2.615490  -0.310815  -0.223143  -0.000318  -0.512971  -0.452803   2.705750  -2.651850   0.612213   8.457310 -80.415500   3.148090   3.950400   0.303423   4.891220 -15.323400   5.447680  -6.516580  -1.313400  42.681500  35.432400 -52.960100 -30.019400  -0.002331   0.006320 -10.010000   0.015502   0.002846 -26.241500  -0.217852   0.439603 -21.471000  -0.007924   0.001161 -15.029800  -0.006124   0.001591 -28.308000  -4.027030   7.424420 -37.014800   0.001757   0.005957 -24.651900  -0.000788  -0.011843 -25.447800  -3.649100   7.616800 -25.690900   0.002628   0.001195 -17.110500   0.001864   0.000333 -25.514200  -3.655490   7.613380 -38.636200   0.002489  -0.002375 -25.731600   0.001416   0.000867   6.739750   4.023450   4.855070  74.191100 -11.063800  -4.816710   4.023750  -4.716060  13.305600 -18.880700  -1.650770   1.606710 -40.106200  37.955800  76.991900  29.979800   0.013688  -0.007842   9.995030  -0.000310   0.000249  27.178100   0.813237   1.583110  22.245800   0.001371  -0.002109  15.566100  -0.005832   0.005708  28.427100   0.848083   1.566000  35.500500  -0.006211   0.010071  23.643300  -0.000429   0.009399  28.069000  -0.459180  -0.857900  32.493400  -0.000388   0.013385  21.640600   0.003242   0.010511  32.313400  -0.521675  -0.821711  48.475800  -0.000725   0.003913  32.284900   0.005828   0.005989   3.439460  -0.993290  -1.462100   0.411323   0.680366  11.731700  -3.319440  -1.736680  -1.361250  -0.000000   0.000000   0.000000  -0.209649  -1.444990  -1.272160  -0.038714   4.120760 -12.271600  -0.772946  -4.088940  -4.935510   0.000000   0.000000  -0.000000
